<?xml version="1.0" encoding="UTF-8"?>
<svg id="Reachly" xmlns="http://www.w3.org/2000/svg" viewBox="0 0 1080 246.39">
  <defs>
    <style>
      .cls-1 {
        fill: #662d91;
      }
    </style>
  </defs>
  <g id="iconos">
    <g>
      <path class="cls-1" d="M246.79,115.45l.14-16.71c1.03-15.76,13.6-27.89,29.35-27.94l29.36-.08.08,118.49c.01,20.97-16.41,37.59-37.55,37.11l-34.27-.06c6.86-5.45,11.88-11.67,15.03-19.94h21.06c7.49-.45,15.4-6.39,15.41-14.67l.15-101.03-8.27-.04c-5.71-.03-10,3.45-10.54,9.3l-.13,17.92c-.1,14.84-10.21,27.34-23.76,32.72l-.16,40.84c-.08,20.01-17.32,34.97-36.98,34.99l-53.57.06c-20.01.02-37.67-15.04-37.69-35.65l-.11-126.94c-.02-20.38,16.58-36.54,36.74-36.56h22.27s.07,131.14.07,131.14c0,5.47,5.35,9,9.99,9l30.21.1v19.73s-32.94.02-32.94.02c-14.67-1.42-27.21-13.45-27.24-28.79l-.23-111.13c-9.55-1.28-18.7,5.86-18.71,15.97l-.05,126.46c0,8.23,6.13,16.25,14.57,16.31l55.55.4c10.72.08,18.32-7.04,18.29-17.8l-.12-36.38c-18.74-3.33-31.56-19.91-30.79-38.78v-42.79s20.11.01,20.11.01l.02,46.49c.96,9.29,8.86,16.21,17.79,15.91,9.39-.32,16.85-7.83,16.94-17.68Z"/>
      <path class="cls-1" d="M285.43,61.44c-1.59-8.59-8.39-14.63-17.25-14.29h-85.49s0-19.9,0-19.9h84.96c19.73-.51,36.42,14.11,37.95,34.2h-20.17Z"/>
    </g>
    <g>
      <path class="cls-1" d="M402.17,83.4h6.58v21.7h-13.02c-7.14,0-13.72,2.94-18.34,7.56s-7.7,11.2-7.7,18.34v47.6h-21.56v-95.2c6.02,0,11.34,2.52,15.26,6.44s6.3,9.52,6.3,9.52c7-8.96,17.5-14.84,29.4-15.82.98,0,2.1-.14,3.08-.14Z"/>
      <path class="cls-1" d="M504.51,122.32c.56,2.8.84,5.74.84,8.68s-.28,5.88-.84,8.68h-71.26c1.26,3.64,3.36,7,6.16,9.66,4.62,4.76,11.2,7.7,18.34,7.7s13.58-2.94,18.34-7.7l15.26,15.26c-8.54,8.68-20.44,14-33.6,14s-25.06-5.32-33.6-14c-6.72-6.58-11.48-15.26-13.16-24.92-.56-2.8-.84-5.74-.84-8.68s.28-5.88.84-8.68c4.06-22.12,23.38-38.92,46.76-38.92,13.16,0,25.06,5.32,33.6,14,6.72,6.72,11.34,15.26,13.16,24.92ZM482.25,122.32c-1.4-3.64-3.5-7-6.16-9.66-4.76-4.62-11.2-7.56-18.34-7.56s-13.72,2.94-18.34,7.56c-2.8,2.66-4.9,6.02-6.16,9.66h49Z"/>
      <path class="cls-1" d="M587.24,83.4h21.7v95.2c-7.7,0-14.56-4.06-18.34-10.08-1.26-1.96-2.24-4.2-2.8-6.58-6.86,9.38-17.64,15.68-29.82,16.52-1.12.14-2.1.14-3.22.14-11.34,0-21.56-4.62-28.98-12.04s-12.04-17.64-12.04-28.98v-13.02c0-22.68,18.34-41.16,41.02-41.16,1.12,0,2.1.14,3.22.14,11.9.98,22.4,6.86,29.26,15.82v-15.96ZM587.24,131c0-7.14-2.94-13.58-7.56-18.34-4.76-4.62-11.2-7.56-18.34-7.56s-13.72,2.94-18.34,7.56-7.7,11.2-7.7,18.34c0,14.42,11.62,26.04,26.04,26.04,7.14,0,13.58-2.94,18.34-7.7s7.56-11.2,7.56-18.34Z"/>
      <path class="cls-1" d="M641.7,131c0,14.42,11.62,26.04,26.04,26.04,11.34,0,20.86-7.28,24.5-17.36h22.26c-4.06,22.12-23.52,38.92-46.76,38.92-26.32,0-47.6-21.28-47.6-47.6s21.28-47.6,47.6-47.6c23.24,0,42.7,16.8,46.76,38.92h-22.26c-3.64-10.08-13.16-17.22-24.5-17.22-14.42,0-26.04,11.62-26.04,25.9Z"/>
      <path class="cls-1" d="M820.9,124.56v54.04h-21.7v-47.6c0-7.14,1.4-25.9-15.54-25.9-15.68,0-29.54,11.34-36.4,19.04v54.46h-21.56V31.6h21.56v67.76c11.2-8.4,21.28-15.96,42.84-15.96,30.24,0,30.8,25.48,30.8,41.16Z"/>
      <path class="cls-1" d="M856.46,31.6v147h-21.56V31.6h21.56Z"/>
      <g>
        <path class="cls-1" d="M943.96,83.4h21.7v47.46c0,7.84-1.96,15.26-5.18,21.7-2.38,4.48-5.32,8.54-8.82,12.04-2.38,2.24-4.9,4.34-7.7,6.16-7.7,5.04-16.8,7.7-25.9,7.7-9.66,0-18.76-2.8-26.18-7.84-13.3-8.68-21.42-23.52-21.42-39.76v-47.46h21.56v47.46c0,7,2.8,13.58,7.7,18.48,4.62,4.62,11.2,7.56,18.34,7.56s13.58-2.94,18.34-7.56c2.66-2.8,4.9-6.16,6.16-9.94.98-2.66,1.4-5.46,1.4-8.54v-47.46Z"/>
        <path class="cls-1" d="M929.61,201.63c0,11.27-9.14,20.41-20.41,20.41h-20.34v-21.88c4.59-.02,9.17-.04,13.76-.06,2.8-.01,5.08-2.26,5.12-5.06.14-9.02.29-18.05.43-27.07h21.44v33.66Z"/>
      </g>
    </g>
  </g>
</svg>
